<?xml version="1.0" encoding="UTF-8"?>
<svg width="64" height="64" version="1.1" viewBox="0 0 135.47 135.47" xmlns="http://www.w3.org/2000/svg">
 <path transform="scale(.26458)" d="m-10.008-10.928c-3.9909 5.5723-1.0575 13.176-1.9547 19.631 0.2481 45.593-0.58211 91.231 0.7496 136.8 1.3847 5.1449 7.9984 4.4384 10.833 0.91448 34.027-26.239 66.854-54.99 106.88-71.462 14.693-6.1796 30.817-9.2285 46.497-7.8445 26.002 0.21924 49.486 12.596 70.717 26.525 35.7 24.736 65.159 57.118 100.1 82.823 18.562 13.001 41.181 23.201 64.338 19.256 24.577-2.7074 43.756-20.593 58.395-39.165 35.142-45.28 55.459-100.47 65.185-156.57 1.6626-4.4466 2.0478-12.301-4.6299-11.942h-514.06c-1.0153 0.34506-2.0307 0.69011-3.046 1.0352z" style="fill:#217867"/>
 <path transform="scale(.26458)" d="m514.23 6.3538c-5.0901 5.0262-4.7666 13.238-6.9161 19.741-11.986 50.781-33.226 100.97-67.965 140.71-15.215 16.821-36.348 31.446-59.969 30.419-16.904 0.59735-34.436-5.5385-48.696-15.106-42.637-28.09-75.473-68.894-119.54-95.053-24.178-14.263-52.937-23.95-81.168-18.072-34.082 6.9463-63.132 27.694-90.675 47.864-16.857 12.892-33.715 25.988-49.853 39.665-3.0884 5.8496-0.61689 13.236-1.411 19.706 0.42128 14.842-0.89654 29.856 0.94786 44.599 1.7164 5.5067 8.4182 3.8523 11.557 0.60275 35.291-23.076 71.041-47.047 111.39-60.2 22.486-7.4553 48.273-7.8706 70.286 2.1434 36.226 15.947 61.534 49.406 77.797 84.474 24.067 54.048 35.499 114.07 69.735 163.3 19.127 28.684 47.63 49.91 78.881 63.833 34.193 15.741 70.673 25.734 106.9 35.53 6.579 0.79276 7.5515-7.0894 7.1856-11.885-0.16082-13.273 0.76916-26.778-0.46895-39.897-2.2559-5.245-9.2162-2.5046-13.669-4.495-44.291-9.4023-90.547-22.783-124.87-54.136-25.702-23.048-41.139-58.13-37.321-92.935 1.4047-17.05 10.547-33.333 25.169-42.474 25.303-16.417 55.365-24.722 78.906-44.051 27.811-22.231 49.541-50.791 71.287-78.697 2.3934-8.5121 0.4057-17.763 1.0556-26.569-0.30877-34.881 0.68822-69.808-0.78019-104.66-0.2094-3.8091-4.4493-6.1742-7.8071-4.3616z" style="fill:#2ca089"/>
 <path transform="scale(.26458)" d="m143.76 156.61c-34.965 1.1273-66.323 19.124-95.824 36.186-18.734 10.667-36.153 23.624-55.015 33.972-6.2262 2.8059-3.8625 11.131-4.6247 16.552-0.34144 60.12-0.52706 120.25 0.10841 180.37-0.23451 4.589 0.64128 12.23 7.0082 11.176 8.1468-4.5754 14.315-12.245 21.735-17.958 30.02-26.378 66.288-48.943 106.77-51.583 29.469-2.7785 61.455 5.3186 84.274 25.441 33.804 29.396 58.538 69.258 98.073 92.085 23.227 14.894 49.358 24.064 74.067 35.965 6.8385 3.3782 15.107 1.3904 22.513 2.1329 35.538 0.0166 71.118 0.61656 106.63-0.62523 6.0732-1.3088 4.5659-9.9796-1.1626-10.426-47.364-14.145-96.261-26.523-137.33-54.964-36.548-25.623-58.869-66.343-74.793-107.05-15.675-39.558-26.08-81.579-47.052-118.94-18.485-31.177-45.7-60.28-81.912-69.591-7.658-1.9322-15.567-2.8738-23.465-2.74zm-11.815 53.64c24.166-0.66025 45.836 14.582 59.956 33.176 7.4731 9.7104 12.976 21.582 11.519 34.121 0.0453 11.788-8.8614 21.443-17.613 28.334-21.461 15.575-48.524 18.55-74.183 15.244-19.077-2.4928-39.309-8.141-53.042-22.401-10.683-11.145-10.162-28.879-2.616-41.595 8.4296-15.325 22.079-27.454 37.059-36.239 11.783-6.6335 25.178-10.65 38.92-10.639z" style="fill:#37c8ab"/>
 <path transform="scale(.26458)" d="m131.78 210.94c-29.751 0.77109-57.137 19.315-73.182 43.7-7.9846 11.936-11.186 29.508-1.0501 41.225 13.777 15.502 34.994 21.637 54.809 24.835 21.39 2.0516 43.902 0.70125 63.189-9.6598 14.544-7.3534 28.971-21.596 27.48-39.159-2.0418-15.466-11.039-29.246-22.627-39.386-12.744-12.883-30.192-21.907-48.619-21.557z" style="fill:#87decd"/>
 <path transform="scale(.26458)" d="m515.83 154.4c-7.0465 3.5005-10.445 11.561-15.891 16.973-21.856 26.195-45.484 52.972-77.071 67.692-17.85 9.7109-37.023 17.203-53.837 28.702-15.109 10.553-22.121 29.149-22.2 47.083-1.3968 39.266 21.808 76.373 54.062 97.499 30.06 20.526 65.209 31.718 100.48 39.387 5.7482 0.6546 11.651 4.0685 17.404 2.5113 5.3197-3.8934 2.8435-11.71 3.7093-17.345 0.55705-88.779 0.49881-177.57-0.1242-266.35-0.87165-5.2651 1.937-12.511-3.4628-15.924-1.0195-0.0525-2.0509-0.23628-3.0664-0.23286z" style="fill:#217867"/>
 <path transform="scale(.26458)" d="m134.47 365.79c-39.197-0.11713-76.078 18.16-105.63 42.848-12.701 9.9867-25.133 22.014-37.252 31.686-0.012306-0.51675-3.921 3.6066-3.0358 6.2637-0.75178 23.411-0.7084 46.97-0.235 70.316 2.0113 6.8303 10.767 3.319 16.034 4.1767 118.17-0.11079 236.35 0.26709 354.52-0.33825 5.9948-0.7914 5.4577-9.2024-5e-3 -10.348-34.816-15.1-69.878-32.685-95.849-61.11-21.506-21.765-39.975-46.996-65.073-64.911-18.631-12.806-40.966-18.872-63.469-18.582z" style="fill:#2ca089"/>
 <path d="m3.9077 188.55c10.855-12.374 21.709-24.749 32.619-26.431 10.909-1.6823 21.872 7.3268 33.595 17.639 11.723 10.312 24.206 21.926 35.82 21.6 11.615-0.32577 22.361-12.591 33.107-24.857" style="fill:none;stroke-linecap:round;stroke-linejoin:round;stroke-width:2.6458;stroke:#000000"/>
 <path d="m-43.546 65.936c3.9268 1.0372 9.2456 3.5337 10.682 6.483 1.4366 2.9492-1.1113 6.4942-4.7328 7.5298s-8.4269-0.38424-11.132-3.0992c-2.7055-2.7149-3.3734-6.9455-2.3788-9.2281 0.99464-2.2826 3.6349-2.7226 7.5617-1.6855z" style="fill:none;stroke-linecap:round;stroke-linejoin:round;stroke-width:2.6458;stroke:#000000"/>
 <path d="m-116.61 139.54c4.7448-2.0858 9.4895-4.1716 17.308-2.7114 7.8182 1.4602 18.709 6.466 26.905 8.5516 8.1954 2.0857 13.695 1.2514 19.194 3.4416 5.4996 2.1903 10.999 7.4046 15.312 10.898 4.3134 3.4937 7.4405 5.2665 10.567 7.0393" style="fill:none;stroke-linecap:round;stroke-linejoin:round;stroke-width:2.5849;stroke:#000000"/>
 <path d="m178.78 71.291c-2.2906 1.5961-5.822 3.3918-7.1105 6.285s-0.33408 6.8836 2.0999 10.425c2.434 3.5415 6.3471 6.634 9.5445 7.8808 3.1974 1.2469 5.6789 0.64832 7.8264 0.04975 2.1475-0.59857 3.9609-1.1971 5.0584-3.0426 1.0975-1.8455 1.4793-4.938 1.3839-8.3797-0.0954-3.4417-0.66807-7.2325-1.8611-10.475-1.193-3.2422-3.0064-5.9357-5.2017-7.0332-2.1952-1.0975-4.7722-0.59873-6.5858 0.34905-1.8136 0.94777-2.8634 2.3444-5.154 3.9405z" style="fill:none;stroke-linecap:round;stroke-linejoin:round;stroke-width:2.3785;stroke:#000000"/>
 <path d="m159.89 127.76c-0.75982 2.2796-0.86836 4.9933 0.54294 6.8385 1.4113 1.8452 4.342 2.8221 6.35 1.8452 2.0079-0.97693 3.0934-3.9076 2.388-6.6756-0.70542-2.7679-3.202-5.373-5.156-5.753-1.954-0.38001-3.3651 1.4652-4.1249 3.7448z" style="fill:none;stroke-linecap:round;stroke-linejoin:round;stroke-width:2.6458;stroke:#000000"/>
 <path d="m-2.6162 41.039c12.495-10.206 24.989-20.411 36.242-22.799 11.253-2.3884 21.264 3.04 30.332 10.23s17.304 16.261 25.323 20.658c8.0195 4.3969 15.877 4.1798 22.904-1.3165 7.027-5.4963 13.317-16.435 17.14-25.663 3.8231-9.2284 5.2261-16.828 6.6291-24.428" style="fill:none;stroke-linecap:round;stroke-linejoin:round;stroke-width:2.6458;stroke:#000000"/>
 <path d="m231.53 15.956c-10.312 3.7991-20.624 7.5982-22.957 13.514-2.3338 5.9161 3.277 13.901 8.5182 16.139 5.2411 2.2383 9.9888-1.3225 14.765-4.9045" style="fill:none;stroke-linecap:round;stroke-linejoin:round;stroke-width:2.6458;stroke:#000000"/>
 <path d="m18.562 63.229c4.9932-5.0475 12.917-9.0638 20.516-7.0555 7.5984 2.0083 14.871 10.041 14.817 16.499-0.05437 6.4585-7.4353 11.343-16.065 12.374s-18.507-1.7908-22.415-6.2413c-3.908-4.4505-1.8456-10.529 3.1476-15.577z" style="fill:none;stroke-linecap:round;stroke-width:2.6458;stroke:#000000"/>
 <path d="m-1.6282 59.918c13.634-8.9812 27.354-18.019 38.86-18.616 11.506-0.59687 20.841 7.2184 26.811 16.011 5.9701 8.7925 8.5752 18.562 12.537 29.633 3.962 11.072 9.2807 23.446 19.512 31.723 10.231 8.2766 25.373 12.456 40.515 16.635" style="fill:none;stroke-linecap:round;stroke-width:2.6458;stroke:#000000"/>
 <path d="m139.05 36.472c-7.0556 9.2265-14.111 18.453-22.415 23.989-8.3037 5.5359-17.856 7.3812-22.198 13.351-4.342 5.9702-3.4736 16.065 0.6514 23.718 4.125 7.6527 11.506 12.863 18.942 16.282 7.4355 3.4192 14.925 5.0474 22.415 6.6755" style="fill:none;stroke-linecap:round;stroke-width:2.6458;stroke:#000000"/>
 <path d="m-1.9538 116.25c7.3812-6.7299 14.762-13.46 23.881-16.988 9.1183-3.5278 19.973-3.8535 28.548 1.0314 8.5753 4.8849 14.871 14.979 22.795 21.981 7.9242 7.0013 17.476 10.909 27.028 14.817" style="fill:none;stroke-linecap:round;stroke-width:2.6458;stroke:#000000"/>
 <rect x="1.2433" y="1.2433" width="132.98" height="132.98" style="fill:none;stroke-linecap:round;stroke-width:2.4867;stroke:#000000"/>
</svg>
